<svg width="20" height="20" viewBox="0 0 20 20" fill="none" xmlns="http://www.w3.org/2000/svg">
<g clip-path="url(#clip0_1_169)">
<path fillRule="evenodd" clipRule="evenodd" d="M9.23697 4.04326C9.51955 4.34253 9.79015 4.68847 10.0442 5.08376C10.2958 4.68673 10.5649 4.33988 10.8467 4.04046C15.9727 -1.40563 25.308 8.83754 10.0487 18.1902C-5.21934 8.83186 4.03672 -1.46427 9.23697 4.04326ZM10.0487 16.7138C17.2799 12.0497 17.7279 7.66293 16.7627 5.61233C16.2338 4.48875 15.2538 3.84464 14.2607 3.77722C12.1089 3.63115 11.0253 5.70104 10.0442 7.24926C9.04446 5.69367 7.94906 3.61263 5.78412 3.75571C4.79061 3.82137 3.81708 4.46393 3.29498 5.5875C2.33872 7.6454 2.81493 12.0481 10.0487 16.7138Z" fill="black"/>
<path fillRule="evenodd" clipRule="evenodd" d="M10.0442 5.08376C14.8719 -2.53465 26.1469 8.32334 10.0487 18.1902C-6.04898 8.32334 5.11507 -2.586 10.0442 5.08376Z" fill="#DADCE0"/>
</g>
<defs>
<clipPath id="clip0_1_169">
<rect width="20" height="20" fill="white"/>
</clipPath>
</defs>
</svg>
