<svg width="16" height="16" viewBox="0 0 16 16" fill="none" xmlns="http://www.w3.org/2000/svg">
<path d="M7.03137 12.3046C7.72386 12.3046 8.40956 12.1682 9.04934 11.9032C9.68911 11.6382 10.2704 11.2497 10.7601 10.7601C11.2497 10.2704 11.6382 9.6891 11.9032 9.04933C12.1682 8.40956 12.3046 7.72385 12.3046 7.03137C12.3046 6.33888 12.1682 5.65318 11.9032 5.0134C11.6382 4.37363 11.2497 3.79232 10.7601 3.30266C10.2704 2.81299 9.68911 2.42457 9.04934 2.15957C8.40956 1.89457 7.72386 1.75817 7.03137 1.75817C5.63283 1.75817 4.29158 2.31374 3.30266 3.30266C2.31374 4.29157 1.75817 5.63283 1.75817 7.03137C1.75817 8.4299 2.31374 9.77116 3.30266 10.7601C4.29158 11.749 5.63283 12.3046 7.03137 12.3046V12.3046ZM12.5858 11.3431L15.7321 14.4894C15.816 14.5706 15.8829 14.6676 15.9289 14.7748C15.9749 14.8821 15.999 14.9974 16 15.1141C16.0009 15.2308 15.9786 15.3465 15.9343 15.4545C15.8901 15.5625 15.8247 15.6606 15.7421 15.743C15.6596 15.8255 15.5614 15.8907 15.4534 15.9348C15.3453 15.9789 15.2296 16.0011 15.1129 16C14.9962 15.9989 14.8809 15.9745 14.7737 15.9284C14.6665 15.8823 14.5696 15.8153 14.4886 15.7313L11.3422 12.5849C9.9294 13.6816 8.15175 14.1987 6.37113 14.0308C4.59051 13.863 2.94078 13.0229 1.75778 11.6815C0.574778 10.3401 -0.0525668 8.59833 0.00345308 6.8107C0.059473 5.02307 0.794647 3.32398 2.05932 2.05931C3.32398 0.794646 5.02308 0.0594729 6.81071 0.00345308C8.59834 -0.0525667 10.3401 0.574778 11.6815 1.75778C13.0229 2.94078 13.863 4.59051 14.0308 6.37112C14.1987 8.15174 13.6816 9.92939 12.5849 11.3422L12.5858 11.3431Z" fill="#282828"/>
</svg>
