<svg xmlns="http://www.w3.org/2000/svg" width="22" height="22" viewBox="0 0 22 22" fill="none">
  <path d="M15.2969 2.40625C13.5704 2.40625 12.0381 3.08773 11 4.25906C9.96187 3.08773 8.42961 2.40625 6.70312 2.40625C5.19941 2.40807 3.7578 3.00622 2.69451 4.06951C1.63122 5.1328 1.03307 6.57441 1.03125 8.07812C1.03125 14.2948 10.1243 19.262 10.511 19.4709C10.6613 19.5518 10.8293 19.5942 11 19.5942C11.1707 19.5942 11.3387 19.5518 11.489 19.4709C11.8757 19.262 20.9688 14.2948 20.9688 8.07812C20.9669 6.57441 20.3688 5.1328 19.3055 4.06951C18.2422 3.00622 16.8006 2.40807 15.2969 2.40625ZM14.8251 14.6403C13.6282 15.656 12.3487 16.5701 11 17.3731C9.65126 16.5701 8.3718 15.656 7.17492 14.6403C5.31266 13.0427 3.09375 10.6064 3.09375 8.07812C3.09375 7.12086 3.47402 6.2028 4.15091 5.52591C4.8278 4.84902 5.74586 4.46875 6.70312 4.46875C8.23281 4.46875 9.51328 5.27656 10.0452 6.57766C10.1227 6.76733 10.2548 6.92964 10.4249 7.04389C10.5949 7.15815 10.7951 7.21916 11 7.21916C11.2049 7.21916 11.4051 7.15815 11.5751 7.04389C11.7452 6.92964 11.8773 6.76733 11.9548 6.57766C12.4867 5.27656 13.7672 4.46875 15.2969 4.46875C16.2541 4.46875 17.1722 4.84902 17.8491 5.52591C18.526 6.2028 18.9062 7.12086 18.9062 8.07812C18.9062 10.6064 16.6873 13.0427 14.8251 14.6403Z" fill="#C80C0C"/>
  <path d="M14.8251 14.6403C13.6282 15.656 12.3487 16.5701 11 17.3731C9.65126 16.5701 8.3718 15.656 7.17492 14.6403C5.31266 13.0427 3.09375 10.6064 3.09375 8.07812C3.09375 7.12086 3.47402 6.2028 4.15091 5.52591C4.8278 4.84902 5.74586 4.46875 6.70312 4.46875C8.23281 4.46875 9.51328 5.27656 10.0452 6.57766C10.1227 6.76733 10.2548 6.92964 10.4249 7.04389C10.5949 7.15815 10.7951 7.21916 11 7.21916C11.2049 7.21916 11.4051 7.15815 11.5751 7.04389C11.7452 6.92964 11.8773 6.76733 11.9548 6.57766C12.4867 5.27656 13.7672 4.46875 15.2969 4.46875C16.2541 4.46875 17.1722 4.84902 17.8491 5.52591C18.526 6.2028 18.9062 7.12086 18.9062 8.07812C18.9062 10.6064 16.6873 13.0427 14.8251 14.6403Z" fill="#C80C0C"/>
</svg>